<mxfile host="app.diagrams.net" modified="2024-05-15T07:06:25.098Z" agent="Mozilla/5.0 (Windows NT 10.0; Win64; x64) AppleWebKit/537.36 (KHTML, like Gecko) Chrome/124.0.0.0 Safari/537.36" etag="4lbb9R7IYe0Y40zaWhrV" version="24.4.0" type="google" pages="8">
  <diagram id="3g0pWUWrzUDwvUy7kvIR" name="design">
    <mxGraphModel grid="1" page="1" gridSize="10" guides="1" tooltips="1" connect="1" arrows="1" fold="1" pageScale="1" pageWidth="827" pageHeight="1169" math="0" shadow="0">
      <root>
        <mxCell id="0" />
        <mxCell id="1" parent="0" />
        <mxCell id="n8SAmsgHNBc6VUUq2iBJ-41" value="client" style="rounded=0;whiteSpace=wrap;html=1;fontSize=20;align=center;fillColor=#dae8fc;strokeColor=#6c8ebf;fontStyle=1" vertex="1" parent="1">
          <mxGeometry x="290" y="520" width="240" height="30" as="geometry" />
        </mxCell>
        <mxCell id="n8SAmsgHNBc6VUUq2iBJ-42" value="" style="rounded=0;whiteSpace=wrap;html=1;fontSize=21;align=center;fillColor=#dae8fc;strokeColor=#6c8ebf;fontStyle=1" vertex="1" parent="1">
          <mxGeometry x="290" y="550" width="240" height="60" as="geometry" />
        </mxCell>
        <mxCell id="n8SAmsgHNBc6VUUq2iBJ-43" value="Next.JS" style="rounded=0;whiteSpace=wrap;html=1;fontSize=17;align=center;fontStyle=0" vertex="1" parent="1">
          <mxGeometry x="352.5" y="557.5" width="115" height="45" as="geometry" />
        </mxCell>
        <mxCell id="n8SAmsgHNBc6VUUq2iBJ-44" value="auth" style="rounded=0;whiteSpace=wrap;html=1;fontSize=20;align=center;fillColor=#dae8fc;strokeColor=#6c8ebf;fontStyle=1" vertex="1" parent="1">
          <mxGeometry x="780" y="310" width="240" height="30" as="geometry" />
        </mxCell>
        <mxCell id="n8SAmsgHNBc6VUUq2iBJ-45" value="" style="rounded=0;whiteSpace=wrap;html=1;fontSize=21;align=center;fillColor=#dae8fc;strokeColor=#6c8ebf;fontStyle=1" vertex="1" parent="1">
          <mxGeometry x="780" y="340" width="240" height="60" as="geometry" />
        </mxCell>
        <mxCell id="n8SAmsgHNBc6VUUq2iBJ-46" style="edgeStyle=orthogonalEdgeStyle;rounded=0;orthogonalLoop=1;jettySize=auto;html=1;exitX=1;exitY=0.5;exitDx=0;exitDy=0;fontSize=17;" edge="1" parent="1" source="n8SAmsgHNBc6VUUq2iBJ-47" target="n8SAmsgHNBc6VUUq2iBJ-48">
          <mxGeometry relative="1" as="geometry" />
        </mxCell>
        <mxCell id="n8SAmsgHNBc6VUUq2iBJ-47" value="node" style="rounded=0;whiteSpace=wrap;html=1;fontSize=17;align=center;fontStyle=0" vertex="1" parent="1">
          <mxGeometry x="785" y="347.5" width="95" height="45" as="geometry" />
        </mxCell>
        <mxCell id="n8SAmsgHNBc6VUUq2iBJ-48" value="mongodb" style="rounded=0;whiteSpace=wrap;html=1;fontSize=17;align=center;fontStyle=0" vertex="1" parent="1">
          <mxGeometry x="920" y="347.5" width="95" height="45" as="geometry" />
        </mxCell>
        <mxCell id="n8SAmsgHNBc6VUUq2iBJ-49" value="tickets" style="rounded=0;whiteSpace=wrap;html=1;fontSize=20;align=center;fillColor=#dae8fc;strokeColor=#6c8ebf;fontStyle=1" vertex="1" parent="1">
          <mxGeometry x="780" y="410" width="240" height="30" as="geometry" />
        </mxCell>
        <mxCell id="n8SAmsgHNBc6VUUq2iBJ-50" value="" style="rounded=0;whiteSpace=wrap;html=1;fontSize=21;align=center;fillColor=#dae8fc;strokeColor=#6c8ebf;fontStyle=1" vertex="1" parent="1">
          <mxGeometry x="780" y="440" width="240" height="60" as="geometry" />
        </mxCell>
        <mxCell id="n8SAmsgHNBc6VUUq2iBJ-51" style="edgeStyle=orthogonalEdgeStyle;rounded=0;orthogonalLoop=1;jettySize=auto;html=1;exitX=1;exitY=0.5;exitDx=0;exitDy=0;fontSize=17;" edge="1" parent="1" source="n8SAmsgHNBc6VUUq2iBJ-52" target="n8SAmsgHNBc6VUUq2iBJ-53">
          <mxGeometry relative="1" as="geometry" />
        </mxCell>
        <mxCell id="n8SAmsgHNBc6VUUq2iBJ-52" value="node" style="rounded=0;whiteSpace=wrap;html=1;fontSize=17;align=center;fontStyle=0" vertex="1" parent="1">
          <mxGeometry x="785" y="447.5" width="95" height="45" as="geometry" />
        </mxCell>
        <mxCell id="n8SAmsgHNBc6VUUq2iBJ-53" value="mongodb" style="rounded=0;whiteSpace=wrap;html=1;fontSize=17;align=center;fontStyle=0" vertex="1" parent="1">
          <mxGeometry x="920" y="447.5" width="95" height="45" as="geometry" />
        </mxCell>
        <mxCell id="n8SAmsgHNBc6VUUq2iBJ-54" value="orders" style="rounded=0;whiteSpace=wrap;html=1;fontSize=20;align=center;fillColor=#dae8fc;strokeColor=#6c8ebf;fontStyle=1" vertex="1" parent="1">
          <mxGeometry x="780" y="510" width="240" height="30" as="geometry" />
        </mxCell>
        <mxCell id="n8SAmsgHNBc6VUUq2iBJ-55" value="" style="rounded=0;whiteSpace=wrap;html=1;fontSize=21;align=center;fillColor=#dae8fc;strokeColor=#6c8ebf;fontStyle=1" vertex="1" parent="1">
          <mxGeometry x="780" y="540" width="240" height="60" as="geometry" />
        </mxCell>
        <mxCell id="n8SAmsgHNBc6VUUq2iBJ-56" style="edgeStyle=orthogonalEdgeStyle;rounded=0;orthogonalLoop=1;jettySize=auto;html=1;exitX=1;exitY=0.5;exitDx=0;exitDy=0;fontSize=17;" edge="1" parent="1" source="n8SAmsgHNBc6VUUq2iBJ-57" target="n8SAmsgHNBc6VUUq2iBJ-58">
          <mxGeometry relative="1" as="geometry" />
        </mxCell>
        <mxCell id="n8SAmsgHNBc6VUUq2iBJ-57" value="node" style="rounded=0;whiteSpace=wrap;html=1;fontSize=17;align=center;fontStyle=0" vertex="1" parent="1">
          <mxGeometry x="785" y="547.5" width="95" height="45" as="geometry" />
        </mxCell>
        <mxCell id="n8SAmsgHNBc6VUUq2iBJ-58" value="mongodb" style="rounded=0;whiteSpace=wrap;html=1;fontSize=17;align=center;fontStyle=0" vertex="1" parent="1">
          <mxGeometry x="920" y="547.5" width="95" height="45" as="geometry" />
        </mxCell>
        <mxCell id="n8SAmsgHNBc6VUUq2iBJ-59" value="payments" style="rounded=0;whiteSpace=wrap;html=1;fontSize=20;align=center;fillColor=#dae8fc;strokeColor=#6c8ebf;fontStyle=1" vertex="1" parent="1">
          <mxGeometry x="780" y="610" width="240" height="30" as="geometry" />
        </mxCell>
        <mxCell id="n8SAmsgHNBc6VUUq2iBJ-60" value="" style="rounded=0;whiteSpace=wrap;html=1;fontSize=21;align=center;fillColor=#dae8fc;strokeColor=#6c8ebf;fontStyle=1" vertex="1" parent="1">
          <mxGeometry x="780" y="640" width="240" height="60" as="geometry" />
        </mxCell>
        <mxCell id="n8SAmsgHNBc6VUUq2iBJ-61" style="edgeStyle=orthogonalEdgeStyle;rounded=0;orthogonalLoop=1;jettySize=auto;html=1;exitX=1;exitY=0.5;exitDx=0;exitDy=0;fontSize=17;" edge="1" parent="1" source="n8SAmsgHNBc6VUUq2iBJ-62" target="n8SAmsgHNBc6VUUq2iBJ-63">
          <mxGeometry relative="1" as="geometry" />
        </mxCell>
        <mxCell id="n8SAmsgHNBc6VUUq2iBJ-62" value="node" style="rounded=0;whiteSpace=wrap;html=1;fontSize=17;align=center;fontStyle=0" vertex="1" parent="1">
          <mxGeometry x="785" y="647.5" width="95" height="45" as="geometry" />
        </mxCell>
        <mxCell id="n8SAmsgHNBc6VUUq2iBJ-63" value="mongodb" style="rounded=0;whiteSpace=wrap;html=1;fontSize=17;align=center;fontStyle=0" vertex="1" parent="1">
          <mxGeometry x="920" y="647.5" width="95" height="45" as="geometry" />
        </mxCell>
        <mxCell id="n8SAmsgHNBc6VUUq2iBJ-64" value="expiration" style="rounded=0;whiteSpace=wrap;html=1;fontSize=20;align=center;fillColor=#dae8fc;strokeColor=#6c8ebf;fontStyle=1" vertex="1" parent="1">
          <mxGeometry x="780" y="710" width="240" height="30" as="geometry" />
        </mxCell>
        <mxCell id="n8SAmsgHNBc6VUUq2iBJ-65" value="" style="rounded=0;whiteSpace=wrap;html=1;fontSize=21;align=center;fillColor=#dae8fc;strokeColor=#6c8ebf;fontStyle=1" vertex="1" parent="1">
          <mxGeometry x="780" y="740" width="240" height="60" as="geometry" />
        </mxCell>
        <mxCell id="n8SAmsgHNBc6VUUq2iBJ-66" style="edgeStyle=orthogonalEdgeStyle;rounded=0;orthogonalLoop=1;jettySize=auto;html=1;exitX=1;exitY=0.5;exitDx=0;exitDy=0;fontSize=17;" edge="1" parent="1" source="n8SAmsgHNBc6VUUq2iBJ-67" target="n8SAmsgHNBc6VUUq2iBJ-68">
          <mxGeometry relative="1" as="geometry" />
        </mxCell>
        <mxCell id="n8SAmsgHNBc6VUUq2iBJ-67" value="node" style="rounded=0;whiteSpace=wrap;html=1;fontSize=17;align=center;fontStyle=0" vertex="1" parent="1">
          <mxGeometry x="785" y="747.5" width="95" height="45" as="geometry" />
        </mxCell>
        <mxCell id="n8SAmsgHNBc6VUUq2iBJ-68" value="Redis" style="rounded=0;whiteSpace=wrap;html=1;fontSize=17;align=center;fontStyle=2;fillColor=#d5e8d4;strokeColor=#82b366;" vertex="1" parent="1">
          <mxGeometry x="920" y="747.5" width="95" height="45" as="geometry" />
        </mxCell>
        <mxCell id="n8SAmsgHNBc6VUUq2iBJ-69" value="common" style="rounded=0;whiteSpace=wrap;html=1;fontSize=20;align=center;fillColor=#e1d5e7;strokeColor=#9673a6;fontStyle=1" vertex="1" parent="1">
          <mxGeometry x="600" y="310" width="110" height="490" as="geometry" />
        </mxCell>
        <mxCell id="n8SAmsgHNBc6VUUq2iBJ-70" value="" style="endArrow=classic;html=1;fontSize=17;" edge="1" parent="1">
          <mxGeometry width="50" height="50" relative="1" as="geometry">
            <mxPoint x="780" y="369.6" as="sourcePoint" />
            <mxPoint x="710" y="369.6" as="targetPoint" />
          </mxGeometry>
        </mxCell>
        <mxCell id="n8SAmsgHNBc6VUUq2iBJ-71" value="" style="endArrow=classic;html=1;fontSize=17;" edge="1" parent="1">
          <mxGeometry width="50" height="50" relative="1" as="geometry">
            <mxPoint x="780" y="469.6" as="sourcePoint" />
            <mxPoint x="710" y="469.6" as="targetPoint" />
          </mxGeometry>
        </mxCell>
        <mxCell id="n8SAmsgHNBc6VUUq2iBJ-72" value="" style="endArrow=classic;html=1;fontSize=17;" edge="1" parent="1">
          <mxGeometry width="50" height="50" relative="1" as="geometry">
            <mxPoint x="780" y="569.5999999999999" as="sourcePoint" />
            <mxPoint x="710" y="569.5999999999999" as="targetPoint" />
          </mxGeometry>
        </mxCell>
        <mxCell id="n8SAmsgHNBc6VUUq2iBJ-73" value="" style="endArrow=classic;html=1;fontSize=17;" edge="1" parent="1">
          <mxGeometry width="50" height="50" relative="1" as="geometry">
            <mxPoint x="780" y="669.5999999999999" as="sourcePoint" />
            <mxPoint x="710" y="669.5999999999999" as="targetPoint" />
          </mxGeometry>
        </mxCell>
        <mxCell id="n8SAmsgHNBc6VUUq2iBJ-74" value="" style="endArrow=classic;html=1;fontSize=17;" edge="1" parent="1">
          <mxGeometry width="50" height="50" relative="1" as="geometry">
            <mxPoint x="780" y="769.5999999999999" as="sourcePoint" />
            <mxPoint x="710" y="769.5999999999999" as="targetPoint" />
          </mxGeometry>
        </mxCell>
        <mxCell id="n8SAmsgHNBc6VUUq2iBJ-75" value="NATS Streaming Server" style="rounded=0;whiteSpace=wrap;html=1;fontSize=20;align=center;fillColor=#f8cecc;strokeColor=#b85450;fontStyle=1" vertex="1" parent="1">
          <mxGeometry x="1090" y="310" width="110" height="490" as="geometry" />
        </mxCell>
        <mxCell id="n8SAmsgHNBc6VUUq2iBJ-76" value="" style="endArrow=classic;html=1;fontSize=17;" edge="1" parent="1">
          <mxGeometry width="50" height="50" relative="1" as="geometry">
            <mxPoint x="1020" y="369.6" as="sourcePoint" />
            <mxPoint x="1090" y="369.6" as="targetPoint" />
          </mxGeometry>
        </mxCell>
        <mxCell id="n8SAmsgHNBc6VUUq2iBJ-77" value="" style="endArrow=classic;html=1;fontSize=17;" edge="1" parent="1">
          <mxGeometry width="50" height="50" relative="1" as="geometry">
            <mxPoint x="1020" y="469.5999999999999" as="sourcePoint" />
            <mxPoint x="1090" y="469.5999999999999" as="targetPoint" />
          </mxGeometry>
        </mxCell>
        <mxCell id="n8SAmsgHNBc6VUUq2iBJ-78" value="" style="endArrow=classic;html=1;fontSize=17;" edge="1" parent="1">
          <mxGeometry width="50" height="50" relative="1" as="geometry">
            <mxPoint x="1020" y="569.5999999999999" as="sourcePoint" />
            <mxPoint x="1090" y="569.5999999999999" as="targetPoint" />
          </mxGeometry>
        </mxCell>
        <mxCell id="n8SAmsgHNBc6VUUq2iBJ-79" value="" style="endArrow=classic;html=1;fontSize=17;" edge="1" parent="1">
          <mxGeometry width="50" height="50" relative="1" as="geometry">
            <mxPoint x="1020" y="669.5999999999999" as="sourcePoint" />
            <mxPoint x="1090" y="669.5999999999999" as="targetPoint" />
          </mxGeometry>
        </mxCell>
        <mxCell id="n8SAmsgHNBc6VUUq2iBJ-80" value="" style="endArrow=classic;html=1;fontSize=17;" edge="1" parent="1">
          <mxGeometry width="50" height="50" relative="1" as="geometry">
            <mxPoint x="1020" y="769.5999999999999" as="sourcePoint" />
            <mxPoint x="1090" y="769.5999999999999" as="targetPoint" />
          </mxGeometry>
        </mxCell>
      </root>
    </mxGraphModel>
  </diagram>
  <diagram id="uGbc4wKkh5dbsH3-cx46" name="services">
    <mxGraphModel grid="1" page="1" gridSize="10" guides="1" tooltips="1" connect="1" arrows="1" fold="1" pageScale="1" pageWidth="827" pageHeight="1169" math="0" shadow="0">
      <root>
        <mxCell id="0" />
        <mxCell id="1" parent="0" />
        <mxCell id="dgHssuIAV5VblNgDHsec-1" value="auth" style="rounded=0;whiteSpace=wrap;html=1;fontSize=24;align=center;fillColor=#dae8fc;strokeColor=#6c8ebf;fontStyle=1" vertex="1" parent="1">
          <mxGeometry x="610" y="260" width="140" height="50" as="geometry" />
        </mxCell>
        <mxCell id="dgHssuIAV5VblNgDHsec-2" value="orders" style="rounded=0;whiteSpace=wrap;html=1;fontSize=24;align=center;fillColor=#dae8fc;strokeColor=#6c8ebf;fontStyle=1" vertex="1" parent="1">
          <mxGeometry x="610" y="380" width="140" height="50" as="geometry" />
        </mxCell>
        <mxCell id="dgHssuIAV5VblNgDHsec-3" value="expiration" style="rounded=0;whiteSpace=wrap;html=1;fontSize=24;align=center;fillColor=#dae8fc;strokeColor=#6c8ebf;fontStyle=1" vertex="1" parent="1">
          <mxGeometry x="610" y="440" width="140" height="50" as="geometry" />
        </mxCell>
        <mxCell id="dgHssuIAV5VblNgDHsec-4" value="payments" style="rounded=0;whiteSpace=wrap;html=1;fontSize=24;align=center;fillColor=#dae8fc;strokeColor=#6c8ebf;fontStyle=1" vertex="1" parent="1">
          <mxGeometry x="610" y="500" width="140" height="50" as="geometry" />
        </mxCell>
        <mxCell id="dgHssuIAV5VblNgDHsec-5" value="tickets" style="rounded=0;whiteSpace=wrap;html=1;fontSize=24;align=center;fillColor=#dae8fc;strokeColor=#6c8ebf;fontStyle=1" vertex="1" parent="1">
          <mxGeometry x="610" y="320" width="140" height="50" as="geometry" />
        </mxCell>
        <mxCell id="dgHssuIAV5VblNgDHsec-6" value="Services" style="text;html=1;strokeColor=none;fillColor=none;align=center;verticalAlign=middle;whiteSpace=wrap;rounded=0;fontSize=24;fontStyle=5" vertex="1" parent="1">
          <mxGeometry x="770" y="220" width="160" height="30" as="geometry" />
        </mxCell>
        <mxCell id="dgHssuIAV5VblNgDHsec-7" value="" style="shape=curlyBracket;whiteSpace=wrap;html=1;rounded=1;fontSize=24;align=center;rotation=-180;" vertex="1" parent="1">
          <mxGeometry x="760" y="260" width="30" height="50" as="geometry" />
        </mxCell>
        <mxCell id="dgHssuIAV5VblNgDHsec-8" value="Everything related to user signup/signin/signout" style="text;html=1;strokeColor=none;fillColor=none;align=left;verticalAlign=middle;whiteSpace=wrap;rounded=0;fontSize=15;" vertex="1" parent="1">
          <mxGeometry x="790" y="267.5" width="210" height="35" as="geometry" />
        </mxCell>
        <mxCell id="dgHssuIAV5VblNgDHsec-9" value="" style="shape=curlyBracket;whiteSpace=wrap;html=1;rounded=1;fontSize=24;align=center;rotation=-180;" vertex="1" parent="1">
          <mxGeometry x="760" y="320" width="30" height="50" as="geometry" />
        </mxCell>
        <mxCell id="dgHssuIAV5VblNgDHsec-10" value="Ticket creation/editing.&amp;nbsp; Knows whether a ticket can be updated" style="text;html=1;strokeColor=none;fillColor=none;align=left;verticalAlign=middle;whiteSpace=wrap;rounded=0;fontSize=15;" vertex="1" parent="1">
          <mxGeometry x="790" y="327.5" width="300" height="35" as="geometry" />
        </mxCell>
        <mxCell id="dgHssuIAV5VblNgDHsec-11" value="" style="shape=curlyBracket;whiteSpace=wrap;html=1;rounded=1;fontSize=24;align=center;rotation=-180;" vertex="1" parent="1">
          <mxGeometry x="760" y="380" width="30" height="50" as="geometry" />
        </mxCell>
        <mxCell id="dgHssuIAV5VblNgDHsec-12" value="Order creation/editing" style="text;html=1;strokeColor=none;fillColor=none;align=left;verticalAlign=middle;whiteSpace=wrap;rounded=0;fontSize=15;" vertex="1" parent="1">
          <mxGeometry x="790" y="387.5" width="210" height="35" as="geometry" />
        </mxCell>
        <mxCell id="dgHssuIAV5VblNgDHsec-13" value="" style="shape=curlyBracket;whiteSpace=wrap;html=1;rounded=1;fontSize=24;align=center;rotation=-180;" vertex="1" parent="1">
          <mxGeometry x="760" y="440" width="30" height="50" as="geometry" />
        </mxCell>
        <mxCell id="dgHssuIAV5VblNgDHsec-14" value="Watches for orders to be created, cancels them after 15 minutes" style="text;html=1;strokeColor=none;fillColor=none;align=left;verticalAlign=middle;whiteSpace=wrap;rounded=0;fontSize=15;" vertex="1" parent="1">
          <mxGeometry x="790" y="447.5" width="260" height="35" as="geometry" />
        </mxCell>
        <mxCell id="dgHssuIAV5VblNgDHsec-15" value="" style="shape=curlyBracket;whiteSpace=wrap;html=1;rounded=1;fontSize=24;align=center;rotation=-180;" vertex="1" parent="1">
          <mxGeometry x="760" y="500" width="30" height="50" as="geometry" />
        </mxCell>
        <mxCell id="dgHssuIAV5VblNgDHsec-16" value="Handles credit card payments.&amp;nbsp; Cancels orders if payments fails, completes if payment succeeds" style="text;html=1;strokeColor=none;fillColor=none;align=left;verticalAlign=middle;whiteSpace=wrap;rounded=0;fontSize=15;" vertex="1" parent="1">
          <mxGeometry x="790" y="507.5" width="330" height="35" as="geometry" />
        </mxCell>
      </root>
    </mxGraphModel>
  </diagram>
  <diagram name="ticket:created" id="w7YaoLQgm8qHu7Xl2SfE">
    <mxGraphModel dx="2074" dy="1132" grid="1" gridSize="10" guides="1" tooltips="1" connect="1" arrows="1" fold="1" page="1" pageScale="1" pageWidth="1920" pageHeight="1200" math="0" shadow="0">
      <root>
        <mxCell id="JV3dai9hfGRf0m7YUMMa-0" />
        <mxCell id="JV3dai9hfGRf0m7YUMMa-1" parent="JV3dai9hfGRf0m7YUMMa-0" />
        <mxCell id="JV3dai9hfGRf0m7YUMMa-2" value="Tickets Service" style="rounded=0;whiteSpace=wrap;html=1;fontSize=19;fillColor=#f5f5f5;strokeColor=#666666;fontColor=#333333;fontStyle=1" parent="JV3dai9hfGRf0m7YUMMa-1" vertex="1">
          <mxGeometry x="700" y="180" width="180" height="25" as="geometry" />
        </mxCell>
        <mxCell id="JV3dai9hfGRf0m7YUMMa-3" style="edgeStyle=orthogonalEdgeStyle;rounded=0;orthogonalLoop=1;jettySize=auto;html=1;exitX=0.5;exitY=1;exitDx=0;exitDy=0;fontSize=19;" parent="JV3dai9hfGRf0m7YUMMa-1" source="JV3dai9hfGRf0m7YUMMa-4" target="JV3dai9hfGRf0m7YUMMa-19" edge="1">
          <mxGeometry relative="1" as="geometry" />
        </mxCell>
        <mxCell id="JV3dai9hfGRf0m7YUMMa-4" value="" style="rounded=0;whiteSpace=wrap;html=1;fontSize=22;fillColor=#f5f5f5;strokeColor=#666666;fontColor=#333333;fontStyle=1" parent="JV3dai9hfGRf0m7YUMMa-1" vertex="1">
          <mxGeometry x="700" y="205" width="180" height="130" as="geometry" />
        </mxCell>
        <mxCell id="JV3dai9hfGRf0m7YUMMa-5" value="Orders Service" style="rounded=0;whiteSpace=wrap;html=1;fontSize=19;fillColor=#f5f5f5;strokeColor=#666666;fontColor=#333333;fontStyle=1" parent="JV3dai9hfGRf0m7YUMMa-1" vertex="1">
          <mxGeometry x="910" y="180" width="180" height="25" as="geometry" />
        </mxCell>
        <mxCell id="JV3dai9hfGRf0m7YUMMa-7" value="" style="rounded=0;whiteSpace=wrap;html=1;fontSize=22;fillColor=#f5f5f5;strokeColor=#666666;fontColor=#333333;fontStyle=1" parent="JV3dai9hfGRf0m7YUMMa-1" vertex="1">
          <mxGeometry x="910" y="205" width="180" height="130" as="geometry" />
        </mxCell>
        <mxCell id="JV3dai9hfGRf0m7YUMMa-8" value="Expiration Service" style="rounded=0;whiteSpace=wrap;html=1;fontSize=19;fillColor=#f5f5f5;strokeColor=#666666;fontColor=#333333;fontStyle=1" parent="JV3dai9hfGRf0m7YUMMa-1" vertex="1">
          <mxGeometry x="1340" y="180" width="180" height="25" as="geometry" />
        </mxCell>
        <mxCell id="JV3dai9hfGRf0m7YUMMa-10" value="" style="rounded=0;whiteSpace=wrap;html=1;fontSize=22;fillColor=#f5f5f5;strokeColor=#666666;fontColor=#333333;fontStyle=1" parent="JV3dai9hfGRf0m7YUMMa-1" vertex="1">
          <mxGeometry x="1340" y="205" width="180" height="130" as="geometry" />
        </mxCell>
        <mxCell id="JV3dai9hfGRf0m7YUMMa-11" value="Payments Service" style="rounded=0;whiteSpace=wrap;html=1;fontSize=19;fillColor=#f5f5f5;strokeColor=#666666;fontColor=#333333;fontStyle=1" parent="JV3dai9hfGRf0m7YUMMa-1" vertex="1">
          <mxGeometry x="1130" y="180" width="180" height="25" as="geometry" />
        </mxCell>
        <mxCell id="JV3dai9hfGRf0m7YUMMa-13" value="" style="rounded=0;whiteSpace=wrap;html=1;fontSize=22;fillColor=#f5f5f5;strokeColor=#666666;fontColor=#333333;fontStyle=1" parent="JV3dai9hfGRf0m7YUMMa-1" vertex="1">
          <mxGeometry x="1130" y="205" width="180" height="130" as="geometry" />
        </mxCell>
        <mxCell id="JV3dai9hfGRf0m7YUMMa-14" value="tickets" style="rounded=0;whiteSpace=wrap;html=1;fontSize=19;fillColor=#d5e8d4;strokeColor=#82b366;" parent="JV3dai9hfGRf0m7YUMMa-1" vertex="1">
          <mxGeometry x="730" y="220" width="120" height="40" as="geometry" />
        </mxCell>
        <mxCell id="JV3dai9hfGRf0m7YUMMa-15" value="orders" style="rounded=0;whiteSpace=wrap;html=1;fontSize=19;fillColor=#d5e8d4;strokeColor=#82b366;" parent="JV3dai9hfGRf0m7YUMMa-1" vertex="1">
          <mxGeometry x="940" y="220" width="120" height="40" as="geometry" />
        </mxCell>
        <mxCell id="JV3dai9hfGRf0m7YUMMa-16" value="tickets" style="rounded=0;whiteSpace=wrap;html=1;fontSize=19;fillColor=#e1d5e7;strokeColor=#9673a6;" parent="JV3dai9hfGRf0m7YUMMa-1" vertex="1">
          <mxGeometry x="940" y="270" width="120" height="40" as="geometry" />
        </mxCell>
        <mxCell id="JV3dai9hfGRf0m7YUMMa-17" value="charges" style="rounded=0;whiteSpace=wrap;html=1;fontSize=19;fillColor=#d5e8d4;strokeColor=#82b366;" parent="JV3dai9hfGRf0m7YUMMa-1" vertex="1">
          <mxGeometry x="1160" y="220" width="120" height="40" as="geometry" />
        </mxCell>
        <mxCell id="JV3dai9hfGRf0m7YUMMa-18" value="orders" style="rounded=0;whiteSpace=wrap;html=1;fontSize=19;fillColor=#e1d5e7;strokeColor=#9673a6;" parent="JV3dai9hfGRf0m7YUMMa-1" vertex="1">
          <mxGeometry x="1160" y="270" width="120" height="40" as="geometry" />
        </mxCell>
        <mxCell id="JV3dai9hfGRf0m7YUMMa-26" style="edgeStyle=orthogonalEdgeStyle;rounded=0;orthogonalLoop=1;jettySize=auto;html=1;exitX=1;exitY=0.5;exitDx=0;exitDy=0;fontSize=23;" parent="JV3dai9hfGRf0m7YUMMa-1" source="JV3dai9hfGRf0m7YUMMa-19" target="JV3dai9hfGRf0m7YUMMa-7" edge="1">
          <mxGeometry relative="1" as="geometry" />
        </mxCell>
        <mxCell id="JV3dai9hfGRf0m7YUMMa-19" value="ticket:created" style="rounded=0;whiteSpace=wrap;html=1;fontSize=17;fillColor=#f8cecc;strokeColor=#b85450;" parent="JV3dai9hfGRf0m7YUMMa-1" vertex="1">
          <mxGeometry x="715" y="360" width="150" height="40" as="geometry" />
        </mxCell>
        <mxCell id="JV3dai9hfGRf0m7YUMMa-24" value="Events Published by Each Service" style="text;html=1;strokeColor=none;fillColor=none;align=center;verticalAlign=middle;whiteSpace=wrap;rounded=0;fontSize=20;fontStyle=1" parent="JV3dai9hfGRf0m7YUMMa-1" vertex="1">
          <mxGeometry x="925" y="140" width="360" height="20" as="geometry" />
        </mxCell>
        <mxCell id="JV3dai9hfGRf0m7YUMMa-28" value="Orders needs to know the valid tickets that can be purchased" style="rounded=0;whiteSpace=wrap;html=1;fontSize=14;" parent="JV3dai9hfGRf0m7YUMMa-1" vertex="1">
          <mxGeometry x="910" y="380" width="280" height="40" as="geometry" />
        </mxCell>
        <mxCell id="JV3dai9hfGRf0m7YUMMa-29" value="Orders needs to know the price of each ticket" style="rounded=0;whiteSpace=wrap;html=1;fontSize=14;" parent="JV3dai9hfGRf0m7YUMMa-1" vertex="1">
          <mxGeometry x="910" y="420" width="280" height="40" as="geometry" />
        </mxCell>
      </root>
    </mxGraphModel>
  </diagram>
  <diagram name="ticket:updated" id="Wn5T2pt1cAzkee172MXG">
    <mxGraphModel dx="2074" dy="1132" grid="1" gridSize="10" guides="1" tooltips="1" connect="1" arrows="1" fold="1" page="1" pageScale="1" pageWidth="1920" pageHeight="1200" math="0" shadow="0">
      <root>
        <mxCell id="nBsVzfsCoDJfUNaghlDf-0" />
        <mxCell id="nBsVzfsCoDJfUNaghlDf-1" parent="nBsVzfsCoDJfUNaghlDf-0" />
        <mxCell id="nBsVzfsCoDJfUNaghlDf-2" value="Tickets Service" style="rounded=0;whiteSpace=wrap;html=1;fontSize=19;fillColor=#f5f5f5;strokeColor=#666666;fontColor=#333333;fontStyle=1" parent="nBsVzfsCoDJfUNaghlDf-1" vertex="1">
          <mxGeometry x="700" y="180" width="180" height="25" as="geometry" />
        </mxCell>
        <mxCell id="nBsVzfsCoDJfUNaghlDf-3" style="edgeStyle=orthogonalEdgeStyle;rounded=0;orthogonalLoop=1;jettySize=auto;html=1;exitX=0.5;exitY=1;exitDx=0;exitDy=0;fontSize=19;" parent="nBsVzfsCoDJfUNaghlDf-1" source="nBsVzfsCoDJfUNaghlDf-4" target="nBsVzfsCoDJfUNaghlDf-17" edge="1">
          <mxGeometry relative="1" as="geometry" />
        </mxCell>
        <mxCell id="nBsVzfsCoDJfUNaghlDf-4" value="" style="rounded=0;whiteSpace=wrap;html=1;fontSize=22;fillColor=#f5f5f5;strokeColor=#666666;fontColor=#333333;fontStyle=1" parent="nBsVzfsCoDJfUNaghlDf-1" vertex="1">
          <mxGeometry x="700" y="205" width="180" height="130" as="geometry" />
        </mxCell>
        <mxCell id="nBsVzfsCoDJfUNaghlDf-5" value="Orders Service" style="rounded=0;whiteSpace=wrap;html=1;fontSize=19;fillColor=#f5f5f5;strokeColor=#666666;fontColor=#333333;fontStyle=1" parent="nBsVzfsCoDJfUNaghlDf-1" vertex="1">
          <mxGeometry x="910" y="180" width="180" height="25" as="geometry" />
        </mxCell>
        <mxCell id="nBsVzfsCoDJfUNaghlDf-6" value="" style="rounded=0;whiteSpace=wrap;html=1;fontSize=22;fillColor=#f5f5f5;strokeColor=#666666;fontColor=#333333;fontStyle=1" parent="nBsVzfsCoDJfUNaghlDf-1" vertex="1">
          <mxGeometry x="910" y="205" width="180" height="130" as="geometry" />
        </mxCell>
        <mxCell id="nBsVzfsCoDJfUNaghlDf-7" value="Expiration Service" style="rounded=0;whiteSpace=wrap;html=1;fontSize=19;fillColor=#f5f5f5;strokeColor=#666666;fontColor=#333333;fontStyle=1" parent="nBsVzfsCoDJfUNaghlDf-1" vertex="1">
          <mxGeometry x="1340" y="180" width="180" height="25" as="geometry" />
        </mxCell>
        <mxCell id="nBsVzfsCoDJfUNaghlDf-8" value="" style="rounded=0;whiteSpace=wrap;html=1;fontSize=22;fillColor=#f5f5f5;strokeColor=#666666;fontColor=#333333;fontStyle=1" parent="nBsVzfsCoDJfUNaghlDf-1" vertex="1">
          <mxGeometry x="1340" y="205" width="180" height="130" as="geometry" />
        </mxCell>
        <mxCell id="nBsVzfsCoDJfUNaghlDf-9" value="Payments Service" style="rounded=0;whiteSpace=wrap;html=1;fontSize=19;fillColor=#f5f5f5;strokeColor=#666666;fontColor=#333333;fontStyle=1" parent="nBsVzfsCoDJfUNaghlDf-1" vertex="1">
          <mxGeometry x="1130" y="180" width="180" height="25" as="geometry" />
        </mxCell>
        <mxCell id="nBsVzfsCoDJfUNaghlDf-10" value="" style="rounded=0;whiteSpace=wrap;html=1;fontSize=22;fillColor=#f5f5f5;strokeColor=#666666;fontColor=#333333;fontStyle=1" parent="nBsVzfsCoDJfUNaghlDf-1" vertex="1">
          <mxGeometry x="1130" y="205" width="180" height="130" as="geometry" />
        </mxCell>
        <mxCell id="nBsVzfsCoDJfUNaghlDf-11" value="tickets" style="rounded=0;whiteSpace=wrap;html=1;fontSize=19;fillColor=#d5e8d4;strokeColor=#82b366;" parent="nBsVzfsCoDJfUNaghlDf-1" vertex="1">
          <mxGeometry x="730" y="220" width="120" height="40" as="geometry" />
        </mxCell>
        <mxCell id="nBsVzfsCoDJfUNaghlDf-12" value="orders" style="rounded=0;whiteSpace=wrap;html=1;fontSize=19;fillColor=#d5e8d4;strokeColor=#82b366;" parent="nBsVzfsCoDJfUNaghlDf-1" vertex="1">
          <mxGeometry x="940" y="220" width="120" height="40" as="geometry" />
        </mxCell>
        <mxCell id="nBsVzfsCoDJfUNaghlDf-13" value="tickets" style="rounded=0;whiteSpace=wrap;html=1;fontSize=19;fillColor=#e1d5e7;strokeColor=#9673a6;" parent="nBsVzfsCoDJfUNaghlDf-1" vertex="1">
          <mxGeometry x="940" y="270" width="120" height="40" as="geometry" />
        </mxCell>
        <mxCell id="nBsVzfsCoDJfUNaghlDf-14" value="charges" style="rounded=0;whiteSpace=wrap;html=1;fontSize=19;fillColor=#d5e8d4;strokeColor=#82b366;" parent="nBsVzfsCoDJfUNaghlDf-1" vertex="1">
          <mxGeometry x="1160" y="220" width="120" height="40" as="geometry" />
        </mxCell>
        <mxCell id="nBsVzfsCoDJfUNaghlDf-15" value="orders" style="rounded=0;whiteSpace=wrap;html=1;fontSize=19;fillColor=#e1d5e7;strokeColor=#9673a6;" parent="nBsVzfsCoDJfUNaghlDf-1" vertex="1">
          <mxGeometry x="1160" y="270" width="120" height="40" as="geometry" />
        </mxCell>
        <mxCell id="nBsVzfsCoDJfUNaghlDf-16" style="edgeStyle=orthogonalEdgeStyle;rounded=0;orthogonalLoop=1;jettySize=auto;html=1;exitX=1;exitY=0.5;exitDx=0;exitDy=0;fontSize=23;" parent="nBsVzfsCoDJfUNaghlDf-1" source="nBsVzfsCoDJfUNaghlDf-17" target="nBsVzfsCoDJfUNaghlDf-6" edge="1">
          <mxGeometry relative="1" as="geometry" />
        </mxCell>
        <mxCell id="nBsVzfsCoDJfUNaghlDf-17" value="&lt;span&gt;ticket:updated&lt;/span&gt;" style="rounded=0;whiteSpace=wrap;html=1;fontSize=17;fillColor=#f8cecc;strokeColor=#b85450;fontStyle=0" parent="nBsVzfsCoDJfUNaghlDf-1" vertex="1">
          <mxGeometry x="715" y="360" width="150" height="40" as="geometry" />
        </mxCell>
        <mxCell id="nBsVzfsCoDJfUNaghlDf-18" value="Events Published by Each Service" style="text;html=1;strokeColor=none;fillColor=none;align=center;verticalAlign=middle;whiteSpace=wrap;rounded=0;fontSize=20;fontStyle=1" parent="nBsVzfsCoDJfUNaghlDf-1" vertex="1">
          <mxGeometry x="925" y="140" width="360" height="20" as="geometry" />
        </mxCell>
        <mxCell id="nBsVzfsCoDJfUNaghlDf-19" value="Orders service needs to know when the price of a ticket has changed" style="rounded=0;whiteSpace=wrap;html=1;fontSize=14;" parent="nBsVzfsCoDJfUNaghlDf-1" vertex="1">
          <mxGeometry x="910" y="380" width="280" height="40" as="geometry" />
        </mxCell>
        <mxCell id="nBsVzfsCoDJfUNaghlDf-20" value="Orders service needs to know when a ticket has successfully been reserved" style="rounded=0;whiteSpace=wrap;html=1;fontSize=14;" parent="nBsVzfsCoDJfUNaghlDf-1" vertex="1">
          <mxGeometry x="910" y="420" width="280" height="40" as="geometry" />
        </mxCell>
      </root>
    </mxGraphModel>
  </diagram>
  <diagram name="order:created" id="yX9Z3mIyM6CnzmJrsIfo">
    <mxGraphModel dx="2074" dy="1132" grid="1" gridSize="10" guides="1" tooltips="1" connect="1" arrows="1" fold="1" page="1" pageScale="1" pageWidth="1920" pageHeight="1200" math="0" shadow="0">
      <root>
        <mxCell id="3u5cHUID9SENE1VYL8iP-0" />
        <mxCell id="3u5cHUID9SENE1VYL8iP-1" parent="3u5cHUID9SENE1VYL8iP-0" />
        <mxCell id="3u5cHUID9SENE1VYL8iP-2" value="Tickets Service" style="rounded=0;whiteSpace=wrap;html=1;fontSize=19;fillColor=#f5f5f5;strokeColor=#666666;fontColor=#333333;fontStyle=1" parent="3u5cHUID9SENE1VYL8iP-1" vertex="1">
          <mxGeometry x="700" y="180" width="180" height="25" as="geometry" />
        </mxCell>
        <mxCell id="3u5cHUID9SENE1VYL8iP-4" value="" style="rounded=0;whiteSpace=wrap;html=1;fontSize=22;fillColor=#f5f5f5;strokeColor=#666666;fontColor=#333333;fontStyle=1" parent="3u5cHUID9SENE1VYL8iP-1" vertex="1">
          <mxGeometry x="700" y="205" width="180" height="130" as="geometry" />
        </mxCell>
        <mxCell id="3u5cHUID9SENE1VYL8iP-5" value="Orders Service" style="rounded=0;whiteSpace=wrap;html=1;fontSize=19;fillColor=#f5f5f5;strokeColor=#666666;fontColor=#333333;fontStyle=1" parent="3u5cHUID9SENE1VYL8iP-1" vertex="1">
          <mxGeometry x="910" y="180" width="180" height="25" as="geometry" />
        </mxCell>
        <mxCell id="3u5cHUID9SENE1VYL8iP-6" style="edgeStyle=orthogonalEdgeStyle;rounded=0;orthogonalLoop=1;jettySize=auto;html=1;exitX=0.5;exitY=1;exitDx=0;exitDy=0;fontSize=17;" parent="3u5cHUID9SENE1VYL8iP-1" source="3u5cHUID9SENE1VYL8iP-7" target="3u5cHUID9SENE1VYL8iP-21" edge="1">
          <mxGeometry relative="1" as="geometry" />
        </mxCell>
        <mxCell id="3u5cHUID9SENE1VYL8iP-7" value="" style="rounded=0;whiteSpace=wrap;html=1;fontSize=22;fillColor=#f5f5f5;strokeColor=#666666;fontColor=#333333;fontStyle=1" parent="3u5cHUID9SENE1VYL8iP-1" vertex="1">
          <mxGeometry x="910" y="205" width="180" height="130" as="geometry" />
        </mxCell>
        <mxCell id="3u5cHUID9SENE1VYL8iP-8" value="Expiration Service" style="rounded=0;whiteSpace=wrap;html=1;fontSize=19;fillColor=#f5f5f5;strokeColor=#666666;fontColor=#333333;fontStyle=1" parent="3u5cHUID9SENE1VYL8iP-1" vertex="1">
          <mxGeometry x="1340" y="180" width="180" height="25" as="geometry" />
        </mxCell>
        <mxCell id="3u5cHUID9SENE1VYL8iP-10" value="" style="rounded=0;whiteSpace=wrap;html=1;fontSize=22;fillColor=#f5f5f5;strokeColor=#666666;fontColor=#333333;fontStyle=1" parent="3u5cHUID9SENE1VYL8iP-1" vertex="1">
          <mxGeometry x="1340" y="205" width="180" height="130" as="geometry" />
        </mxCell>
        <mxCell id="3u5cHUID9SENE1VYL8iP-11" value="Payments Service" style="rounded=0;whiteSpace=wrap;html=1;fontSize=19;fillColor=#f5f5f5;strokeColor=#666666;fontColor=#333333;fontStyle=1" parent="3u5cHUID9SENE1VYL8iP-1" vertex="1">
          <mxGeometry x="1130" y="180" width="180" height="25" as="geometry" />
        </mxCell>
        <mxCell id="3u5cHUID9SENE1VYL8iP-13" value="" style="rounded=0;whiteSpace=wrap;html=1;fontSize=22;fillColor=#f5f5f5;strokeColor=#666666;fontColor=#333333;fontStyle=1" parent="3u5cHUID9SENE1VYL8iP-1" vertex="1">
          <mxGeometry x="1130" y="205" width="180" height="130" as="geometry" />
        </mxCell>
        <mxCell id="3u5cHUID9SENE1VYL8iP-14" value="tickets" style="rounded=0;whiteSpace=wrap;html=1;fontSize=19;fillColor=#d5e8d4;strokeColor=#82b366;" parent="3u5cHUID9SENE1VYL8iP-1" vertex="1">
          <mxGeometry x="730" y="220" width="120" height="40" as="geometry" />
        </mxCell>
        <mxCell id="3u5cHUID9SENE1VYL8iP-15" value="orders" style="rounded=0;whiteSpace=wrap;html=1;fontSize=19;fillColor=#d5e8d4;strokeColor=#82b366;" parent="3u5cHUID9SENE1VYL8iP-1" vertex="1">
          <mxGeometry x="940" y="220" width="120" height="40" as="geometry" />
        </mxCell>
        <mxCell id="3u5cHUID9SENE1VYL8iP-16" value="tickets" style="rounded=0;whiteSpace=wrap;html=1;fontSize=19;fillColor=#e1d5e7;strokeColor=#9673a6;" parent="3u5cHUID9SENE1VYL8iP-1" vertex="1">
          <mxGeometry x="940" y="270" width="120" height="40" as="geometry" />
        </mxCell>
        <mxCell id="3u5cHUID9SENE1VYL8iP-17" value="charges" style="rounded=0;whiteSpace=wrap;html=1;fontSize=19;fillColor=#d5e8d4;strokeColor=#82b366;" parent="3u5cHUID9SENE1VYL8iP-1" vertex="1">
          <mxGeometry x="1160" y="220" width="120" height="40" as="geometry" />
        </mxCell>
        <mxCell id="3u5cHUID9SENE1VYL8iP-18" value="orders" style="rounded=0;whiteSpace=wrap;html=1;fontSize=19;fillColor=#e1d5e7;strokeColor=#9673a6;" parent="3u5cHUID9SENE1VYL8iP-1" vertex="1">
          <mxGeometry x="1160" y="270" width="120" height="40" as="geometry" />
        </mxCell>
        <mxCell id="QL-yinFOZZvO3_ZusUWX-2" style="edgeStyle=orthogonalEdgeStyle;rounded=0;orthogonalLoop=1;jettySize=auto;html=1;exitX=0;exitY=0.5;exitDx=0;exitDy=0;entryX=0.5;entryY=1;entryDx=0;entryDy=0;fontSize=14;" parent="3u5cHUID9SENE1VYL8iP-1" source="3u5cHUID9SENE1VYL8iP-21" target="3u5cHUID9SENE1VYL8iP-4" edge="1">
          <mxGeometry relative="1" as="geometry" />
        </mxCell>
        <mxCell id="QL-yinFOZZvO3_ZusUWX-3" style="edgeStyle=orthogonalEdgeStyle;rounded=0;orthogonalLoop=1;jettySize=auto;html=1;exitX=1;exitY=0.5;exitDx=0;exitDy=0;entryX=0.5;entryY=1;entryDx=0;entryDy=0;fontSize=14;" parent="3u5cHUID9SENE1VYL8iP-1" source="3u5cHUID9SENE1VYL8iP-21" target="3u5cHUID9SENE1VYL8iP-13" edge="1">
          <mxGeometry relative="1" as="geometry" />
        </mxCell>
        <mxCell id="QL-yinFOZZvO3_ZusUWX-4" style="edgeStyle=orthogonalEdgeStyle;rounded=0;orthogonalLoop=1;jettySize=auto;html=1;exitX=0.75;exitY=1;exitDx=0;exitDy=0;fontSize=14;" parent="3u5cHUID9SENE1VYL8iP-1" source="3u5cHUID9SENE1VYL8iP-21" target="3u5cHUID9SENE1VYL8iP-10" edge="1">
          <mxGeometry relative="1" as="geometry">
            <Array as="points">
              <mxPoint x="1037" y="480" />
              <mxPoint x="1430" y="480" />
            </Array>
          </mxGeometry>
        </mxCell>
        <mxCell id="3u5cHUID9SENE1VYL8iP-21" value="order:created" style="rounded=0;whiteSpace=wrap;html=1;fontSize=17;fillColor=#f8cecc;strokeColor=#b85450;" parent="3u5cHUID9SENE1VYL8iP-1" vertex="1">
          <mxGeometry x="925" y="360" width="150" height="40" as="geometry" />
        </mxCell>
        <mxCell id="3u5cHUID9SENE1VYL8iP-24" value="Events Published by Each Service" style="text;html=1;strokeColor=none;fillColor=none;align=center;verticalAlign=middle;whiteSpace=wrap;rounded=0;fontSize=20;fontStyle=1" parent="3u5cHUID9SENE1VYL8iP-1" vertex="1">
          <mxGeometry x="925" y="140" width="360" height="20" as="geometry" />
        </mxCell>
        <mxCell id="QL-yinFOZZvO3_ZusUWX-0" value="Tickets service needs to be told that one of its tickets has been reserved, and no further edits to that ticket should be allowed" style="rounded=0;whiteSpace=wrap;html=1;fontSize=14;" parent="3u5cHUID9SENE1VYL8iP-1" vertex="1">
          <mxGeometry x="620" y="380" width="280" height="60" as="geometry" />
        </mxCell>
        <mxCell id="QL-yinFOZZvO3_ZusUWX-1" value="Payments service needs to know there is a new order that a user might submit a payment for" style="rounded=0;whiteSpace=wrap;html=1;fontSize=14;" parent="3u5cHUID9SENE1VYL8iP-1" vertex="1">
          <mxGeometry x="1100" y="380" width="200" height="70" as="geometry" />
        </mxCell>
        <mxCell id="QL-yinFOZZvO3_ZusUWX-5" value="Expiration service needs to start a 15 minute timer to eventually time out this order" style="rounded=0;whiteSpace=wrap;html=1;fontSize=14;" parent="3u5cHUID9SENE1VYL8iP-1" vertex="1">
          <mxGeometry x="1080" y="480" width="200" height="50" as="geometry" />
        </mxCell>
      </root>
    </mxGraphModel>
  </diagram>
  <diagram name="order:cancelled" id="K50jYSyOoIu91iJBLkxh">
    <mxGraphModel dx="2074" dy="1132" grid="1" gridSize="10" guides="1" tooltips="1" connect="1" arrows="1" fold="1" page="1" pageScale="1" pageWidth="1920" pageHeight="1200" math="0" shadow="0">
      <root>
        <mxCell id="ivzruJvGXnL_ElyHbdAM-0" />
        <mxCell id="ivzruJvGXnL_ElyHbdAM-1" parent="ivzruJvGXnL_ElyHbdAM-0" />
        <mxCell id="ivzruJvGXnL_ElyHbdAM-2" value="Tickets Service" style="rounded=0;whiteSpace=wrap;html=1;fontSize=19;fillColor=#f5f5f5;strokeColor=#666666;fontColor=#333333;fontStyle=1" parent="ivzruJvGXnL_ElyHbdAM-1" vertex="1">
          <mxGeometry x="700" y="180" width="180" height="25" as="geometry" />
        </mxCell>
        <mxCell id="ivzruJvGXnL_ElyHbdAM-4" value="" style="rounded=0;whiteSpace=wrap;html=1;fontSize=22;fillColor=#f5f5f5;strokeColor=#666666;fontColor=#333333;fontStyle=1" parent="ivzruJvGXnL_ElyHbdAM-1" vertex="1">
          <mxGeometry x="700" y="205" width="180" height="130" as="geometry" />
        </mxCell>
        <mxCell id="ivzruJvGXnL_ElyHbdAM-5" value="Orders Service" style="rounded=0;whiteSpace=wrap;html=1;fontSize=19;fillColor=#f5f5f5;strokeColor=#666666;fontColor=#333333;fontStyle=1" parent="ivzruJvGXnL_ElyHbdAM-1" vertex="1">
          <mxGeometry x="910" y="180" width="180" height="25" as="geometry" />
        </mxCell>
        <mxCell id="ivzruJvGXnL_ElyHbdAM-6" style="edgeStyle=orthogonalEdgeStyle;rounded=0;orthogonalLoop=1;jettySize=auto;html=1;exitX=0.5;exitY=1;exitDx=0;exitDy=0;fontSize=17;" parent="ivzruJvGXnL_ElyHbdAM-1" source="ivzruJvGXnL_ElyHbdAM-7" target="ivzruJvGXnL_ElyHbdAM-21" edge="1">
          <mxGeometry relative="1" as="geometry" />
        </mxCell>
        <mxCell id="ivzruJvGXnL_ElyHbdAM-7" value="" style="rounded=0;whiteSpace=wrap;html=1;fontSize=22;fillColor=#f5f5f5;strokeColor=#666666;fontColor=#333333;fontStyle=1" parent="ivzruJvGXnL_ElyHbdAM-1" vertex="1">
          <mxGeometry x="910" y="205" width="180" height="130" as="geometry" />
        </mxCell>
        <mxCell id="ivzruJvGXnL_ElyHbdAM-8" value="Expiration Service" style="rounded=0;whiteSpace=wrap;html=1;fontSize=19;fillColor=#f5f5f5;strokeColor=#666666;fontColor=#333333;fontStyle=1" parent="ivzruJvGXnL_ElyHbdAM-1" vertex="1">
          <mxGeometry x="1340" y="180" width="180" height="25" as="geometry" />
        </mxCell>
        <mxCell id="ivzruJvGXnL_ElyHbdAM-10" value="" style="rounded=0;whiteSpace=wrap;html=1;fontSize=22;fillColor=#f5f5f5;strokeColor=#666666;fontColor=#333333;fontStyle=1" parent="ivzruJvGXnL_ElyHbdAM-1" vertex="1">
          <mxGeometry x="1340" y="205" width="180" height="130" as="geometry" />
        </mxCell>
        <mxCell id="ivzruJvGXnL_ElyHbdAM-11" value="Payments Service" style="rounded=0;whiteSpace=wrap;html=1;fontSize=19;fillColor=#f5f5f5;strokeColor=#666666;fontColor=#333333;fontStyle=1" parent="ivzruJvGXnL_ElyHbdAM-1" vertex="1">
          <mxGeometry x="1130" y="180" width="180" height="25" as="geometry" />
        </mxCell>
        <mxCell id="ivzruJvGXnL_ElyHbdAM-13" value="" style="rounded=0;whiteSpace=wrap;html=1;fontSize=22;fillColor=#f5f5f5;strokeColor=#666666;fontColor=#333333;fontStyle=1" parent="ivzruJvGXnL_ElyHbdAM-1" vertex="1">
          <mxGeometry x="1130" y="205" width="180" height="130" as="geometry" />
        </mxCell>
        <mxCell id="ivzruJvGXnL_ElyHbdAM-14" value="tickets" style="rounded=0;whiteSpace=wrap;html=1;fontSize=19;fillColor=#d5e8d4;strokeColor=#82b366;" parent="ivzruJvGXnL_ElyHbdAM-1" vertex="1">
          <mxGeometry x="730" y="220" width="120" height="40" as="geometry" />
        </mxCell>
        <mxCell id="ivzruJvGXnL_ElyHbdAM-15" value="orders" style="rounded=0;whiteSpace=wrap;html=1;fontSize=19;fillColor=#d5e8d4;strokeColor=#82b366;" parent="ivzruJvGXnL_ElyHbdAM-1" vertex="1">
          <mxGeometry x="940" y="220" width="120" height="40" as="geometry" />
        </mxCell>
        <mxCell id="ivzruJvGXnL_ElyHbdAM-16" value="tickets" style="rounded=0;whiteSpace=wrap;html=1;fontSize=19;fillColor=#e1d5e7;strokeColor=#9673a6;" parent="ivzruJvGXnL_ElyHbdAM-1" vertex="1">
          <mxGeometry x="940" y="270" width="120" height="40" as="geometry" />
        </mxCell>
        <mxCell id="ivzruJvGXnL_ElyHbdAM-17" value="charges" style="rounded=0;whiteSpace=wrap;html=1;fontSize=19;fillColor=#d5e8d4;strokeColor=#82b366;" parent="ivzruJvGXnL_ElyHbdAM-1" vertex="1">
          <mxGeometry x="1160" y="220" width="120" height="40" as="geometry" />
        </mxCell>
        <mxCell id="ivzruJvGXnL_ElyHbdAM-18" value="orders" style="rounded=0;whiteSpace=wrap;html=1;fontSize=19;fillColor=#e1d5e7;strokeColor=#9673a6;" parent="ivzruJvGXnL_ElyHbdAM-1" vertex="1">
          <mxGeometry x="1160" y="270" width="120" height="40" as="geometry" />
        </mxCell>
        <mxCell id="ivzruJvGXnL_ElyHbdAM-26" style="edgeStyle=orthogonalEdgeStyle;rounded=0;orthogonalLoop=1;jettySize=auto;html=1;exitX=0;exitY=0.5;exitDx=0;exitDy=0;fontSize=14;" parent="ivzruJvGXnL_ElyHbdAM-1" source="ivzruJvGXnL_ElyHbdAM-21" target="ivzruJvGXnL_ElyHbdAM-4" edge="1">
          <mxGeometry relative="1" as="geometry" />
        </mxCell>
        <mxCell id="JS01PvH6wqp_yfsC-QqR-1" style="edgeStyle=orthogonalEdgeStyle;rounded=0;orthogonalLoop=1;jettySize=auto;html=1;exitX=1;exitY=0.5;exitDx=0;exitDy=0;fontSize=14;" parent="ivzruJvGXnL_ElyHbdAM-1" source="ivzruJvGXnL_ElyHbdAM-21" target="ivzruJvGXnL_ElyHbdAM-13" edge="1">
          <mxGeometry relative="1" as="geometry" />
        </mxCell>
        <mxCell id="ivzruJvGXnL_ElyHbdAM-21" value="order:cancelled" style="rounded=0;whiteSpace=wrap;html=1;fontSize=17;fillColor=#f8cecc;strokeColor=#b85450;" parent="ivzruJvGXnL_ElyHbdAM-1" vertex="1">
          <mxGeometry x="925" y="360" width="150" height="40" as="geometry" />
        </mxCell>
        <mxCell id="ivzruJvGXnL_ElyHbdAM-24" value="Events Published by Each Service" style="text;html=1;strokeColor=none;fillColor=none;align=center;verticalAlign=middle;whiteSpace=wrap;rounded=0;fontSize=20;fontStyle=1" parent="ivzruJvGXnL_ElyHbdAM-1" vertex="1">
          <mxGeometry x="925" y="140" width="360" height="20" as="geometry" />
        </mxCell>
        <mxCell id="JS01PvH6wqp_yfsC-QqR-0" value="Tickets service should unreserve a ticket if the corresponding order has been cancelled so this ticket can be edited again" style="rounded=0;whiteSpace=wrap;html=1;fontSize=14;" parent="ivzruJvGXnL_ElyHbdAM-1" vertex="1">
          <mxGeometry x="620" y="380" width="280" height="60" as="geometry" />
        </mxCell>
        <mxCell id="JS01PvH6wqp_yfsC-QqR-2" value="Payments should know that any incoming payments for this order should be rejected" style="rounded=0;whiteSpace=wrap;html=1;fontSize=14;" parent="ivzruJvGXnL_ElyHbdAM-1" vertex="1">
          <mxGeometry x="1100" y="380" width="280" height="60" as="geometry" />
        </mxCell>
      </root>
    </mxGraphModel>
  </diagram>
  <diagram name="charge:created" id="08wRp82nuXP92P6buXTc">
    <mxGraphModel dx="1430" dy="781" grid="1" gridSize="10" guides="1" tooltips="1" connect="1" arrows="1" fold="1" page="1" pageScale="1" pageWidth="1920" pageHeight="1200" math="0" shadow="0">
      <root>
        <mxCell id="MRmFmuMRFIv-2dhIKDFl-0" />
        <mxCell id="MRmFmuMRFIv-2dhIKDFl-1" parent="MRmFmuMRFIv-2dhIKDFl-0" />
        <mxCell id="MRmFmuMRFIv-2dhIKDFl-2" value="Tickets Service" style="rounded=0;whiteSpace=wrap;html=1;fontSize=19;fillColor=#f5f5f5;strokeColor=#666666;fontColor=#333333;fontStyle=1" parent="MRmFmuMRFIv-2dhIKDFl-1" vertex="1">
          <mxGeometry x="700" y="180" width="180" height="25" as="geometry" />
        </mxCell>
        <mxCell id="MRmFmuMRFIv-2dhIKDFl-4" value="" style="rounded=0;whiteSpace=wrap;html=1;fontSize=22;fillColor=#f5f5f5;strokeColor=#666666;fontColor=#333333;fontStyle=1" parent="MRmFmuMRFIv-2dhIKDFl-1" vertex="1">
          <mxGeometry x="700" y="205" width="180" height="130" as="geometry" />
        </mxCell>
        <mxCell id="MRmFmuMRFIv-2dhIKDFl-5" value="Orders Service" style="rounded=0;whiteSpace=wrap;html=1;fontSize=19;fillColor=#f5f5f5;strokeColor=#666666;fontColor=#333333;fontStyle=1" parent="MRmFmuMRFIv-2dhIKDFl-1" vertex="1">
          <mxGeometry x="910" y="180" width="180" height="25" as="geometry" />
        </mxCell>
        <mxCell id="MRmFmuMRFIv-2dhIKDFl-7" value="" style="rounded=0;whiteSpace=wrap;html=1;fontSize=22;fillColor=#f5f5f5;strokeColor=#666666;fontColor=#333333;fontStyle=1" parent="MRmFmuMRFIv-2dhIKDFl-1" vertex="1">
          <mxGeometry x="910" y="205" width="180" height="130" as="geometry" />
        </mxCell>
        <mxCell id="MRmFmuMRFIv-2dhIKDFl-8" value="Expiration Service" style="rounded=0;whiteSpace=wrap;html=1;fontSize=19;fillColor=#f5f5f5;strokeColor=#666666;fontColor=#333333;fontStyle=1" parent="MRmFmuMRFIv-2dhIKDFl-1" vertex="1">
          <mxGeometry x="1340" y="180" width="180" height="25" as="geometry" />
        </mxCell>
        <mxCell id="MRmFmuMRFIv-2dhIKDFl-10" value="" style="rounded=0;whiteSpace=wrap;html=1;fontSize=22;fillColor=#f5f5f5;strokeColor=#666666;fontColor=#333333;fontStyle=1" parent="MRmFmuMRFIv-2dhIKDFl-1" vertex="1">
          <mxGeometry x="1340" y="205" width="180" height="130" as="geometry" />
        </mxCell>
        <mxCell id="MRmFmuMRFIv-2dhIKDFl-11" value="Payments Service" style="rounded=0;whiteSpace=wrap;html=1;fontSize=19;fillColor=#f5f5f5;strokeColor=#666666;fontColor=#333333;fontStyle=1" parent="MRmFmuMRFIv-2dhIKDFl-1" vertex="1">
          <mxGeometry x="1130" y="180" width="180" height="25" as="geometry" />
        </mxCell>
        <mxCell id="MRmFmuMRFIv-2dhIKDFl-12" style="edgeStyle=orthogonalEdgeStyle;rounded=0;orthogonalLoop=1;jettySize=auto;html=1;exitX=0.5;exitY=1;exitDx=0;exitDy=0;entryX=0.5;entryY=0;entryDx=0;entryDy=0;fontSize=17;" parent="MRmFmuMRFIv-2dhIKDFl-1" source="MRmFmuMRFIv-2dhIKDFl-13" target="MRmFmuMRFIv-2dhIKDFl-23" edge="1">
          <mxGeometry relative="1" as="geometry" />
        </mxCell>
        <mxCell id="MRmFmuMRFIv-2dhIKDFl-13" value="" style="rounded=0;whiteSpace=wrap;html=1;fontSize=22;fillColor=#f5f5f5;strokeColor=#666666;fontColor=#333333;fontStyle=1" parent="MRmFmuMRFIv-2dhIKDFl-1" vertex="1">
          <mxGeometry x="1130" y="205" width="180" height="130" as="geometry" />
        </mxCell>
        <mxCell id="MRmFmuMRFIv-2dhIKDFl-14" value="tickets" style="rounded=0;whiteSpace=wrap;html=1;fontSize=19;fillColor=#d5e8d4;strokeColor=#82b366;" parent="MRmFmuMRFIv-2dhIKDFl-1" vertex="1">
          <mxGeometry x="730" y="220" width="120" height="40" as="geometry" />
        </mxCell>
        <mxCell id="MRmFmuMRFIv-2dhIKDFl-15" value="orders" style="rounded=0;whiteSpace=wrap;html=1;fontSize=19;fillColor=#d5e8d4;strokeColor=#82b366;" parent="MRmFmuMRFIv-2dhIKDFl-1" vertex="1">
          <mxGeometry x="940" y="220" width="120" height="40" as="geometry" />
        </mxCell>
        <mxCell id="MRmFmuMRFIv-2dhIKDFl-16" value="tickets" style="rounded=0;whiteSpace=wrap;html=1;fontSize=19;fillColor=#e1d5e7;strokeColor=#9673a6;" parent="MRmFmuMRFIv-2dhIKDFl-1" vertex="1">
          <mxGeometry x="940" y="270" width="120" height="40" as="geometry" />
        </mxCell>
        <mxCell id="MRmFmuMRFIv-2dhIKDFl-17" value="charges" style="rounded=0;whiteSpace=wrap;html=1;fontSize=19;fillColor=#d5e8d4;strokeColor=#82b366;" parent="MRmFmuMRFIv-2dhIKDFl-1" vertex="1">
          <mxGeometry x="1160" y="220" width="120" height="40" as="geometry" />
        </mxCell>
        <mxCell id="MRmFmuMRFIv-2dhIKDFl-18" value="orders" style="rounded=0;whiteSpace=wrap;html=1;fontSize=19;fillColor=#e1d5e7;strokeColor=#9673a6;" parent="MRmFmuMRFIv-2dhIKDFl-1" vertex="1">
          <mxGeometry x="1160" y="270" width="120" height="40" as="geometry" />
        </mxCell>
        <mxCell id="iVsPoDOJxovzFBvBRD0F-1" style="edgeStyle=orthogonalEdgeStyle;rounded=0;orthogonalLoop=1;jettySize=auto;html=1;exitX=0;exitY=0.5;exitDx=0;exitDy=0;fontSize=14;" parent="MRmFmuMRFIv-2dhIKDFl-1" source="MRmFmuMRFIv-2dhIKDFl-23" target="MRmFmuMRFIv-2dhIKDFl-7" edge="1">
          <mxGeometry relative="1" as="geometry" />
        </mxCell>
        <mxCell id="MRmFmuMRFIv-2dhIKDFl-23" value="charge:created" style="rounded=0;whiteSpace=wrap;html=1;fontSize=17;fillColor=#f8cecc;strokeColor=#b85450;" parent="MRmFmuMRFIv-2dhIKDFl-1" vertex="1">
          <mxGeometry x="1145" y="360" width="150" height="40" as="geometry" />
        </mxCell>
        <mxCell id="MRmFmuMRFIv-2dhIKDFl-24" value="Events Published by Each Service" style="text;html=1;strokeColor=none;fillColor=none;align=center;verticalAlign=middle;whiteSpace=wrap;rounded=0;fontSize=20;fontStyle=1" parent="MRmFmuMRFIv-2dhIKDFl-1" vertex="1">
          <mxGeometry x="925" y="140" width="360" height="20" as="geometry" />
        </mxCell>
        <mxCell id="iVsPoDOJxovzFBvBRD0F-0" value="Orders service needs to know that an order has been paid for" style="rounded=0;whiteSpace=wrap;html=1;fontSize=14;" parent="MRmFmuMRFIv-2dhIKDFl-1" vertex="1">
          <mxGeometry x="840" y="380" width="280" height="60" as="geometry" />
        </mxCell>
      </root>
    </mxGraphModel>
  </diagram>
  <diagram name="expiration:complete" id="2TgdG3SkqVoIlBfgDkSy">
    <mxGraphModel dx="2074" dy="1132" grid="1" gridSize="10" guides="1" tooltips="1" connect="1" arrows="1" fold="1" page="1" pageScale="1" pageWidth="1920" pageHeight="1200" math="0" shadow="0">
      <root>
        <mxCell id="nqaTYYW_B4ES6d_DWvZ9-0" />
        <mxCell id="nqaTYYW_B4ES6d_DWvZ9-1" parent="nqaTYYW_B4ES6d_DWvZ9-0" />
        <mxCell id="nqaTYYW_B4ES6d_DWvZ9-2" value="Tickets Service" style="rounded=0;whiteSpace=wrap;html=1;fontSize=19;fillColor=#f5f5f5;strokeColor=#666666;fontColor=#333333;fontStyle=1" parent="nqaTYYW_B4ES6d_DWvZ9-1" vertex="1">
          <mxGeometry x="700" y="180" width="180" height="25" as="geometry" />
        </mxCell>
        <mxCell id="nqaTYYW_B4ES6d_DWvZ9-4" value="" style="rounded=0;whiteSpace=wrap;html=1;fontSize=22;fillColor=#f5f5f5;strokeColor=#666666;fontColor=#333333;fontStyle=1" parent="nqaTYYW_B4ES6d_DWvZ9-1" vertex="1">
          <mxGeometry x="700" y="205" width="180" height="130" as="geometry" />
        </mxCell>
        <mxCell id="nqaTYYW_B4ES6d_DWvZ9-5" value="Orders Service" style="rounded=0;whiteSpace=wrap;html=1;fontSize=19;fillColor=#f5f5f5;strokeColor=#666666;fontColor=#333333;fontStyle=1" parent="nqaTYYW_B4ES6d_DWvZ9-1" vertex="1">
          <mxGeometry x="910" y="180" width="180" height="25" as="geometry" />
        </mxCell>
        <mxCell id="nqaTYYW_B4ES6d_DWvZ9-7" value="" style="rounded=0;whiteSpace=wrap;html=1;fontSize=22;fillColor=#f5f5f5;strokeColor=#666666;fontColor=#333333;fontStyle=1" parent="nqaTYYW_B4ES6d_DWvZ9-1" vertex="1">
          <mxGeometry x="910" y="205" width="180" height="130" as="geometry" />
        </mxCell>
        <mxCell id="nqaTYYW_B4ES6d_DWvZ9-8" value="Expiration Service" style="rounded=0;whiteSpace=wrap;html=1;fontSize=19;fillColor=#f5f5f5;strokeColor=#666666;fontColor=#333333;fontStyle=1" parent="nqaTYYW_B4ES6d_DWvZ9-1" vertex="1">
          <mxGeometry x="1340" y="180" width="180" height="25" as="geometry" />
        </mxCell>
        <mxCell id="nqaTYYW_B4ES6d_DWvZ9-9" style="edgeStyle=orthogonalEdgeStyle;rounded=0;orthogonalLoop=1;jettySize=auto;html=1;exitX=0.5;exitY=1;exitDx=0;exitDy=0;entryX=0.5;entryY=0;entryDx=0;entryDy=0;fontSize=14;" parent="nqaTYYW_B4ES6d_DWvZ9-1" source="nqaTYYW_B4ES6d_DWvZ9-10" target="nqaTYYW_B4ES6d_DWvZ9-25" edge="1">
          <mxGeometry relative="1" as="geometry" />
        </mxCell>
        <mxCell id="nqaTYYW_B4ES6d_DWvZ9-10" value="" style="rounded=0;whiteSpace=wrap;html=1;fontSize=22;fillColor=#f5f5f5;strokeColor=#666666;fontColor=#333333;fontStyle=1" parent="nqaTYYW_B4ES6d_DWvZ9-1" vertex="1">
          <mxGeometry x="1340" y="205" width="180" height="130" as="geometry" />
        </mxCell>
        <mxCell id="nqaTYYW_B4ES6d_DWvZ9-11" value="Payments Service" style="rounded=0;whiteSpace=wrap;html=1;fontSize=19;fillColor=#f5f5f5;strokeColor=#666666;fontColor=#333333;fontStyle=1" parent="nqaTYYW_B4ES6d_DWvZ9-1" vertex="1">
          <mxGeometry x="1130" y="180" width="180" height="25" as="geometry" />
        </mxCell>
        <mxCell id="nqaTYYW_B4ES6d_DWvZ9-13" value="" style="rounded=0;whiteSpace=wrap;html=1;fontSize=22;fillColor=#f5f5f5;strokeColor=#666666;fontColor=#333333;fontStyle=1" parent="nqaTYYW_B4ES6d_DWvZ9-1" vertex="1">
          <mxGeometry x="1130" y="205" width="180" height="130" as="geometry" />
        </mxCell>
        <mxCell id="nqaTYYW_B4ES6d_DWvZ9-14" value="tickets" style="rounded=0;whiteSpace=wrap;html=1;fontSize=19;fillColor=#d5e8d4;strokeColor=#82b366;" parent="nqaTYYW_B4ES6d_DWvZ9-1" vertex="1">
          <mxGeometry x="730" y="220" width="120" height="40" as="geometry" />
        </mxCell>
        <mxCell id="nqaTYYW_B4ES6d_DWvZ9-15" value="orders" style="rounded=0;whiteSpace=wrap;html=1;fontSize=19;fillColor=#d5e8d4;strokeColor=#82b366;" parent="nqaTYYW_B4ES6d_DWvZ9-1" vertex="1">
          <mxGeometry x="940" y="220" width="120" height="40" as="geometry" />
        </mxCell>
        <mxCell id="nqaTYYW_B4ES6d_DWvZ9-16" value="tickets" style="rounded=0;whiteSpace=wrap;html=1;fontSize=19;fillColor=#e1d5e7;strokeColor=#9673a6;" parent="nqaTYYW_B4ES6d_DWvZ9-1" vertex="1">
          <mxGeometry x="940" y="270" width="120" height="40" as="geometry" />
        </mxCell>
        <mxCell id="nqaTYYW_B4ES6d_DWvZ9-17" value="charges" style="rounded=0;whiteSpace=wrap;html=1;fontSize=19;fillColor=#d5e8d4;strokeColor=#82b366;" parent="nqaTYYW_B4ES6d_DWvZ9-1" vertex="1">
          <mxGeometry x="1160" y="220" width="120" height="40" as="geometry" />
        </mxCell>
        <mxCell id="nqaTYYW_B4ES6d_DWvZ9-18" value="orders" style="rounded=0;whiteSpace=wrap;html=1;fontSize=19;fillColor=#e1d5e7;strokeColor=#9673a6;" parent="nqaTYYW_B4ES6d_DWvZ9-1" vertex="1">
          <mxGeometry x="1160" y="270" width="120" height="40" as="geometry" />
        </mxCell>
        <mxCell id="nqaTYYW_B4ES6d_DWvZ9-24" value="Events Published by Each Service" style="text;html=1;strokeColor=none;fillColor=none;align=center;verticalAlign=middle;whiteSpace=wrap;rounded=0;fontSize=20;fontStyle=1" parent="nqaTYYW_B4ES6d_DWvZ9-1" vertex="1">
          <mxGeometry x="925" y="140" width="360" height="20" as="geometry" />
        </mxCell>
        <mxCell id="ZWfU_CW8xpi1Z24Qrqzk-1" style="edgeStyle=orthogonalEdgeStyle;rounded=0;orthogonalLoop=1;jettySize=auto;html=1;exitX=0;exitY=0.5;exitDx=0;exitDy=0;fontSize=14;" parent="nqaTYYW_B4ES6d_DWvZ9-1" source="nqaTYYW_B4ES6d_DWvZ9-25" target="nqaTYYW_B4ES6d_DWvZ9-7" edge="1">
          <mxGeometry relative="1" as="geometry" />
        </mxCell>
        <mxCell id="nqaTYYW_B4ES6d_DWvZ9-25" value="expiration:complete" style="rounded=0;whiteSpace=wrap;html=1;fontSize=15;fillColor=#f8cecc;strokeColor=#b85450;" parent="nqaTYYW_B4ES6d_DWvZ9-1" vertex="1">
          <mxGeometry x="1355" y="360" width="150" height="40" as="geometry" />
        </mxCell>
        <mxCell id="ZWfU_CW8xpi1Z24Qrqzk-0" value="Orders service needs to know that an order has gone over the 15 minute time limit.&amp;nbsp; It is up to the orders service to decide whether or not to cancel the order (it might have already been paid!!!)" style="rounded=0;whiteSpace=wrap;html=1;fontSize=14;" parent="nqaTYYW_B4ES6d_DWvZ9-1" vertex="1">
          <mxGeometry x="1020" y="380" width="290" height="90" as="geometry" />
        </mxCell>
      </root>
    </mxGraphModel>
  </diagram>
</mxfile>
